<svg width="33.000000" height="32.000000" viewBox="0 0 33 32" fill="none" xmlns="http://www.w3.org/2000/svg" xmlns:xlink="http://www.w3.org/1999/xlink">
	<desc>
			Created with Pixso.
	</desc>
	<defs/>
	<path id="Vector" d="M30.3013 3.00806C28.5945 1.09351 26.2026 0.00415039 23.6968 0.000244141C21.189 0.00317383 18.7947 1.09204 17.085 3.00684L16.5024 3.64941L15.9197 3.00684C12.5276 -0.802979 6.81812 -1.02173 3.16724 2.51807C3.00537 2.67505 2.84912 2.83813 2.69873 3.00684C-0.899658 7.05737 -0.899658 13.3169 2.69873 17.3672L15.6462 31.6157C16.0942 32.1091 16.8406 32.1301 17.3135 31.6628C17.3291 31.6475 17.344 31.6318 17.3586 31.6157L30.3013 17.3672C33.8997 13.3174 33.8997 7.05811 30.3013 3.00806ZM28.5947 15.6726L28.5935 15.6726L16.5024 28.9805L4.41016 15.6726C1.66113 12.5776 1.66113 7.79541 4.41016 4.70044C6.90649 1.87695 11.1238 1.69995 13.8296 4.30493C13.9609 4.4314 14.0874 4.56348 14.2085 4.70044L15.6462 6.2832C16.1201 6.77441 16.885 6.77441 17.3586 6.2832L18.7964 4.70166C21.2927 1.87817 25.51 1.70117 28.2158 4.30615C28.3472 4.43262 28.4736 4.5647 28.5947 4.70166C31.3677 7.80151 31.3879 12.5925 28.5947 15.6726Z" fill="#FF0000" fill-opacity="1.000000" fill-rule="nonzero"/>
</svg>
