<svg width="20" height="20" viewBox="0 0 20 20" fill="none" xmlns="http://www.w3.org/2000/svg">
<path d="M14.6667 4.66672H16.0001M6.00008 0.666718H14.0001C16.9456 0.666718 19.3334 3.05453 19.3334 6.00005V14C19.3334 16.9456 16.9456 19.3334 14.0001 19.3334H6.00008C3.05456 19.3334 0.666748 16.9456 0.666748 14V6.00005C0.666748 3.05453 3.05456 0.666718 6.00008 0.666718ZM10.0001 14C7.79094 14 6.00008 12.2092 6.00008 10C6.00008 7.79091 7.79094 6.00005 10.0001 6.00005C12.2092 6.00005 14.0001 7.79091 14.0001 10C14.0001 12.2092 12.2092 14 10.0001 14Z" stroke="black"/>
</svg>
