<svg width="35.082031" height="31.000000" viewBox="0 0 35.082 31" fill="none" xmlns="http://www.w3.org/2000/svg" xmlns:xlink="http://www.w3.org/1999/xlink">
	<desc>
			Created with Pixso.
	</desc>
	<defs/>
	<mask id="mask_76_2124" fill="white">
		<path id="Union" d="M17.5 0C13.3579 0 10 3.35791 10 7.5C10 9.92139 11.1475 12.0747 12.928 13.4458Q11.7595 13.7051 10.6482 14.1113Q9.14478 14.6609 7.79956 15.4595Q6.4436 16.2644 5.29175 17.2971Q5.2688 17.3179 5.24561 17.3386Q4.1394 18.3384 3.26025 19.509Q2.17041 20.9602 1.42993 22.6736Q0 25.9824 0 30L0 31L34 31L35.082 31L34.9968 29.9214Q34.6724 25.8123 32.9841 22.4785Q32.0786 20.6907 30.8213 19.1997L30.8213 19.1997Q29.8899 18.0952 28.7656 17.1538Q28.0791 16.5789 27.3403 16.0808Q25.4124 14.7803 23.1306 14.0039Q22.9578 13.9451 22.7837 13.8896Q22.3164 13.741 21.8411 13.6167C23.7529 12.2576 25 10.0244 25 7.5C25 3.35791 21.6421 0 17.5 0ZM31.2 23.3821Q32.4873 25.9243 32.8904 29L2.0249 29Q2.17798 25.9844 3.26587 23.467Q3.92017 21.9529 4.88672 20.675Q5.64136 19.6768 6.58667 18.8225Q6.93848 18.5046 7.31006 18.2122Q9.09277 16.8093 11.3347 15.99Q11.9348 15.7705 12.5486 15.5999Q14.6309 15.0205 16.8687 15.0007Q18.7048 14.9844 20.4629 15.3464L20.4631 15.3467Q21.488 15.5576 22.4863 15.8975Q24.5913 16.6135 26.3525 17.8281L26.3525 17.8281Q26.936 18.2302 27.4817 18.6873Q28.4485 19.4968 29.2539 20.4441L29.2539 20.4443Q30.387 21.7771 31.2 23.3821Z" clip-rule="evenodd" fill="" fill-opacity="1.000000" fill-rule="evenodd"/>
	</mask>
	<path id="Union" d="M17.5 0C13.3579 0 10 3.35791 10 7.5C10 9.92139 11.1475 12.0747 12.928 13.4458Q11.7595 13.7051 10.6482 14.1113Q9.14478 14.6609 7.79956 15.4595Q6.4436 16.2644 5.29175 17.2971Q5.2688 17.3179 5.24561 17.3386Q4.1394 18.3384 3.26025 19.509Q2.17041 20.9602 1.42993 22.6736Q0 25.9824 0 30L0 31L34 31L35.082 31L34.9968 29.9214Q34.6724 25.8123 32.9841 22.4785Q32.0786 20.6907 30.8213 19.1997L30.8213 19.1997Q29.8899 18.0952 28.7656 17.1538Q28.0791 16.5789 27.3403 16.0808Q25.4124 14.7803 23.1306 14.0039Q22.9578 13.9451 22.7837 13.8896Q22.3164 13.741 21.8411 13.6167C23.7529 12.2576 25 10.0244 25 7.5C25 3.35791 21.6421 0 17.5 0ZM31.2 23.3821Q32.4873 25.9243 32.8904 29L2.0249 29Q2.17798 25.9844 3.26587 23.467Q3.92017 21.9529 4.88672 20.675Q5.64136 19.6768 6.58667 18.8225Q6.93848 18.5046 7.31006 18.2122Q9.09277 16.8093 11.3347 15.99Q11.9348 15.7705 12.5486 15.5999Q14.6309 15.0205 16.8687 15.0007Q18.7048 14.9844 20.4629 15.3464L20.4631 15.3467Q21.488 15.5576 22.4863 15.8975Q24.5913 16.6135 26.3525 17.8281L26.3525 17.8281Q26.936 18.2302 27.4817 18.6873Q28.4485 19.4968 29.2539 20.4441L29.2539 20.4443Q30.387 21.7771 31.2 23.3821Z" clip-rule="evenodd" fill="#FFFFFF" fill-opacity="1.000000" fill-rule="evenodd" mask="url(#mask_76_2124)"/>
	<path id="Union" d="M23.4888 12.0157C24.4375 10.7595 25 9.19545 25 7.5C25 3.35791 21.6421 0 17.5 0C13.3579 0 10 3.35791 10 7.5C10 9.09301 10.4966 10.57 11.3435 11.7845C11.7833 12.4155 12.3177 12.9755 12.926 13.4443C12.9267 13.4448 12.9273 13.4453 12.928 13.4458Q11.9241 13.6686 10.9623 13.9998Q10.9273 14.0119 10.892 14.0242Q10.7731 14.0657 10.6547 14.1089Q10.6515 14.1101 10.6482 14.1113Q9.14478 14.6609 7.79956 15.4595Q6.44563 16.2632 5.29519 17.294L5.29175 17.2971Q5.2688 17.3179 5.24561 17.3386Q5.10814 17.4629 4.97412 17.5898Q4.03615 18.4782 3.27008 19.496Q3.26517 19.5025 3.26025 19.509L3.25744 19.5128Q2.2763 20.8201 1.57854 22.34Q1.50254 22.5056 1.42993 22.6736Q1.16183 23.2939 0.943991 23.9393Q0.154525 26.278 0.0252951 28.9438Q0.0239354 28.9719 0.0226476 29Q0 29.4944 0 30L0 31L35.082 31L34.9968 29.9214Q34.9601 29.4558 34.9058 29Q34.8912 28.8776 34.8754 28.7566L34.8733 28.7402Q34.426 25.3257 32.9841 22.4785Q32.6445 21.808 32.2555 21.1794Q31.6071 20.1316 30.8213 19.1997Q30.8142 19.1913 30.807 19.1828Q30.0446 18.2812 29.1534 17.4885Q28.9625 17.3186 28.7656 17.1538Q28.6828 17.0844 28.5991 17.0161Q28.0136 16.5381 27.3908 16.115Q27.3656 16.0979 27.3403 16.0808Q25.8265 15.0596 24.0945 14.3616Q23.8097 14.2468 23.5189 14.1407Q23.326 14.0704 23.1306 14.0039Q23.036 13.9717 22.9412 13.9406Q22.8626 13.9148 22.7837 13.8896Q22.3164 13.741 21.8411 13.6167L21.842 13.616C22.4694 13.1698 23.0253 12.6295 23.4888 12.0157ZM19.1008 13.1111L20.6821 11.9868Q21.8464 11.1589 22.4259 10.0307Q23 8.91277 23 7.5Q23 6.36125 22.5975 5.38916Q22.1948 4.41658 21.3892 3.61084Q20.5834 2.80522 19.6108 2.40251Q18.6388 2 17.5 2Q16.3612 2 15.3892 2.40251Q14.4166 2.80522 13.6108 3.61084Q12.8052 4.41658 12.4025 5.38916Q12 6.36125 12 7.5Q12 8.84711 12.5321 9.93359Q13.0692 11.0302 14.1484 11.8613L15.6864 13.0457Q16.2642 13.0059 16.8511 13.0007Q17.9886 12.9907 19.1008 13.1111ZM13.627 15.3395Q13.0849 15.4508 12.553 15.5986L12.5486 15.5999Q12.5346 15.6037 12.5206 15.6077Q11.9211 15.7755 11.3347 15.99Q11.3151 15.9972 11.2958 16.0043Q9.07729 16.8215 7.31006 18.2122Q6.94839 18.4968 6.60547 18.8056Q6.59624 18.8139 6.58667 18.8225Q5.64136 19.6768 4.88672 20.675Q4.11732 21.6922 3.54578 22.8592Q3.39932 23.1582 3.26587 23.467Q2.9494 24.1993 2.71204 24.9738Q2.41187 25.9532 2.23821 27Q2.07714 27.971 2.0249 29L32.8903 29Q32.7786 28.147 32.5988 27.3349Q32.5615 27.1665 32.5213 27Q32.0562 25.073 31.2 23.3821Q31.1499 23.2833 31.0987 23.1856Q30.3173 21.6951 29.2539 20.4443L29.2539 20.4441Q29.2457 20.4345 29.2375 20.4248Q28.5855 19.6607 27.8281 18.9864Q27.6576 18.8345 27.4817 18.6873Q27.2152 18.4641 26.9397 18.254Q26.6511 18.0338 26.3525 17.8281L26.3516 17.8275Q24.7251 16.706 22.8055 16.0096Q22.6469 15.9521 22.4863 15.8975Q21.8228 15.6716 21.1474 15.5026Q20.8116 15.4186 20.4729 15.3487L20.4631 15.3467L20.4629 15.3464Q18.7048 14.9844 16.8687 15.0007Q15.2049 15.0154 13.627 15.3395Z" clip-rule="evenodd" fill="#000000" fill-opacity="1.000000" fill-rule="evenodd"/>
</svg>
