<svg width="20" height="20" viewBox="0 0 20 20" fill="none" xmlns="http://www.w3.org/2000/svg">
<path d="M2.53314 15.6006L2.98036 15.8242L3.11867 15.5476L2.9329 15.3003L2.53314 15.6006ZM4.39953 17.467L4.69985 17.0672L4.45257 16.8815L4.17593 17.0198L4.39953 17.467ZM0.666748 19.3334L0.219534 19.1098C0.123287 19.3023 0.161014 19.5348 0.313195 19.6869C0.465375 19.8391 0.697861 19.8768 0.890355 19.7806L0.666748 19.3334ZM6.00008 6.00005L5.72273 5.58402C5.58363 5.67676 5.50008 5.83287 5.50008 6.00005H6.00008ZM14.0001 14V14.5C14.1673 14.5 14.3234 14.4165 14.4161 14.2774L14.0001 14ZM8.33909 6.70077L8.83229 6.61857L8.33909 6.70077ZM8.52502 7.81633L8.03182 7.89853L8.52502 7.81633ZM7.94942 9.14493L8.22678 9.56096L7.94942 9.14493ZM13.2994 11.661L13.3816 11.1678L13.2994 11.661ZM12.1838 11.4751L12.1016 11.9683L12.1016 11.9683L12.1838 11.4751ZM10.8552 12.0507L10.4392 11.7734L10.8552 12.0507ZM0.166748 10C0.166748 12.2134 0.898629 14.2573 2.13338 15.9009L2.9329 15.3003C1.82379 13.8239 1.16675 11.9894 1.16675 10H0.166748ZM10.0001 0.166718C4.56928 0.166718 0.166748 4.56925 0.166748 10H1.16675C1.16675 5.12154 5.12157 1.16672 10.0001 1.16672V0.166718ZM19.8334 10C19.8334 4.56925 15.4309 0.166718 10.0001 0.166718V1.16672C14.8786 1.16672 18.8334 5.12154 18.8334 10H19.8334ZM10.0001 19.8334C15.4309 19.8334 19.8334 15.4308 19.8334 10H18.8334C18.8334 14.8786 14.8786 18.8334 10.0001 18.8334V19.8334ZM4.09922 17.8667C5.74283 19.1015 7.78671 19.8334 10.0001 19.8334V18.8334C8.0107 18.8334 6.17623 18.1763 4.69985 17.0672L4.09922 17.8667ZM0.890355 19.7806L4.62314 17.9142L4.17593 17.0198L0.443141 18.8862L0.890355 19.7806ZM2.08593 15.377L0.219534 19.1098L1.11396 19.557L2.98036 15.8242L2.08593 15.377ZM5.50008 6.00005V7.33338H6.50008V6.00005H5.50008ZM12.6667 14.5H14.0001V13.5H12.6667V14.5ZM5.50008 7.33338C5.50008 11.2914 8.70871 14.5 12.6667 14.5V13.5C9.26099 13.5 6.50008 10.7391 6.50008 7.33338H5.50008ZM6.27743 6.41608L6.56165 6.2266L6.00695 5.39455L5.72273 5.58402L6.27743 6.41608ZM7.84589 6.78297L8.03182 7.89853L9.01821 7.73413L8.83229 6.61857L7.84589 6.78297ZM7.67207 8.72891L6.3894 9.58402L6.9441 10.4161L8.22678 9.56096L7.67207 8.72891ZM8.03182 7.89853C8.08573 8.222 7.94493 8.54701 7.67207 8.72891L8.22678 9.56096C8.82705 9.16078 9.13682 8.44575 9.01821 7.73413L8.03182 7.89853ZM6.56165 6.2266C7.0648 5.89116 7.74648 6.18649 7.84589 6.78297L8.83229 6.61857C8.61357 5.3063 7.11388 4.65659 6.00695 5.39455L6.56165 6.2266ZM14.4161 14.2774L14.6056 13.9932L13.7735 13.4385L13.5841 13.7227L14.4161 14.2774ZM13.3816 11.1678L12.266 10.9819L12.1016 11.9683L13.2172 12.1542L13.3816 11.1678ZM10.4392 11.7734L9.58405 13.056L10.4161 13.6107L11.2712 12.3281L10.4392 11.7734ZM12.266 10.9819C11.5544 10.8633 10.8394 11.1731 10.4392 11.7734L11.2712 12.3281C11.4531 12.0552 11.7781 11.9144 12.1016 11.9683L12.266 10.9819ZM14.6056 13.9932C15.3435 12.8862 14.6938 11.3866 13.3816 11.1678L13.2172 12.1542C13.8136 12.2537 14.109 12.9353 13.7735 13.4385L14.6056 13.9932Z" fill="black"/>
</svg>
